<svg width="443" height="432" viewBox="0 0 443 432" fill="none" xmlns="http://www.w3.org/2000/svg">
<circle cx="305.5" cy="137.5" r="136.5" fill="white" fill-opacity="0.7" stroke="black" stroke-width="2"/>
<path d="M292.692 144.926C295.842 143.904 298.516 142.994 299.706 142.364L299.09 139.55L299.748 138.556L304.2 137.604L304.62 137.982L304.648 139.172C304.704 140.278 305.012 140.558 306.09 140.558C306.202 140.628 306.272 140.95 306.272 141.272C306.272 141.58 306.202 141.902 306.09 142C304.648 142 303.598 141.356 303.528 139.704L303.486 139.06L300.378 139.732C300.546 140.782 300.644 141.468 300.644 141.818C300.644 142.434 300.21 143.414 299.804 143.694C298.922 144.296 294.862 145.696 294.624 145.696L292.79 145.626L292.692 144.926ZM303.052 135.812L302.086 134.832L303.052 133.866L304.018 134.832L303.052 135.812ZM313.263 142.294C312.997 142.294 310.981 142 309.203 141.454C308.545 141.902 307.649 142 306.095 142V140.558C306.893 140.558 307.537 140.544 308.069 140.502C307.565 140.138 307.257 139.69 307.257 139.186C307.257 138.444 307.943 137.562 308.587 137.086L307.663 136.736L308.097 135.476L312.129 136.988C314.173 137.786 314.789 138.318 314.789 139.382C314.789 139.816 314.537 140.992 314.439 141.272C314.341 141.608 313.473 142.294 313.263 142.294ZM310.281 140.446C310.799 139.032 310.589 137.646 309.553 137.646C309.007 137.646 308.335 138.276 308.223 138.626C308.027 139.494 308.937 140.096 310.281 140.446ZM313.529 141.118C313.725 140.376 313.809 139.998 313.809 139.718C313.795 139.018 313.305 138.822 311.485 138.136C311.611 139.102 311.401 139.9 311.135 140.628C311.835 140.796 312.689 140.992 313.529 141.118Z" fill="black"/>
<circle cx="137.5" cy="137.5" r="136.5" fill="white" fill-opacity="0.7" stroke="black" stroke-width="2"/>
<path d="M120.773 142.238C117.399 142.238 116.209 141.398 116.209 139.228C116.209 138.738 116.293 138.052 116.419 137.016L117.329 137.114C117.245 138.01 117.203 138.556 117.203 138.906C117.203 140.278 118.197 140.782 120.927 140.782C123.237 140.782 125.561 140.488 127.003 140.166L126.429 136.652L127.605 136.232C127.801 137.408 128.067 139.214 128.067 139.606C128.067 140.068 127.451 141.258 127.143 141.398C126.345 141.762 123.251 142.238 120.773 142.238ZM120.885 137.618L119.975 136.694L120.885 135.784L121.795 136.694L120.885 137.618ZM123.307 137.618L122.383 136.694L123.307 135.784L124.217 136.694L123.307 137.618ZM131.962 142.14C130.492 142.14 129.666 141.636 129.666 140.236C129.666 139.914 129.694 139.312 129.764 138.64L130.66 138.71L130.618 139.662C130.618 140.474 131.094 140.698 132.004 140.698C132.69 140.698 133.908 140.586 134.636 140.446C134.496 139.452 134.062 138.514 132.76 136.12L133.796 135.238C135.28 137.898 135.658 139.088 135.658 140.082C135.658 140.6 135.322 141.51 135.084 141.65C134.636 141.93 133.18 142.14 131.962 142.14ZM138.878 139.032C138.878 140.236 139.242 140.558 140.586 140.558C140.712 140.628 140.782 140.95 140.782 141.272C140.782 141.58 140.712 141.902 140.586 142C138.626 142 137.814 141.216 137.786 139.34L137.66 131.066L138.878 130.702V139.032ZM145.784 140.124C146.554 140.46 147.464 140.558 148.948 140.558C149.074 140.628 149.144 140.95 149.144 141.272C149.144 141.58 149.074 141.902 148.948 142C146.96 142 145.714 141.734 144.678 140.978C143.488 141.804 142.662 142 140.59 142V140.558C142.214 140.558 142.998 140.46 143.754 140.096L142.088 138.402L141.584 138.612L141.206 137.506C142.592 136.75 143.866 136.442 144.93 136.442C146.442 136.442 147.38 137.044 147.688 137.492L147.478 138.696L145.784 140.124ZM144.146 138.99C144.37 139.228 144.594 139.438 144.804 139.606L146.568 138.122C146.036 137.856 145.448 137.73 144.846 137.73C144.286 137.73 143.726 137.828 143.166 137.982L144.146 138.99ZM156.405 140.558C156.685 140.558 157.287 140.544 157.735 140.474L157.133 136.848L158.309 136.4C158.533 137.842 158.785 139.788 158.785 140.096C158.785 140.39 158.155 141.664 157.903 141.79C157.721 141.888 156.979 142 156.405 142C155.775 142 155.229 141.776 154.935 141.3C154.557 141.846 153.773 142 153.045 142C152.121 142 151.491 141.748 151.197 141.132C150.735 141.734 149.937 142 148.943 142V140.558C149.699 140.558 150.315 140.446 150.721 140.25L151.071 137.982L152.121 138.066L151.981 139.746C151.939 140.362 152.275 140.558 153.045 140.558C153.493 140.558 153.997 140.502 154.389 140.404L154.697 138.458L155.733 138.528L155.635 139.746C155.579 140.376 155.789 140.558 156.405 140.558Z" fill="black"/>
<circle cx="305.5" cy="290.5" r="136.5" fill="white" fill-opacity="0.7" stroke="black" stroke-width="2"/>
<path d="M286.906 295.238C283.532 295.238 282.342 294.398 282.342 292.228C282.342 291.738 282.426 291.052 282.552 290.016L283.462 290.114C283.378 291.01 283.336 291.556 283.336 291.906C283.336 293.278 284.33 293.782 287.06 293.782C289.426 293.782 291.82 293.474 293.248 293.152L293.122 292.004C292.59 292.214 291.974 292.326 291.358 292.326C289.902 292.326 289.398 291.598 289.44 290.52C289.468 290.002 289.51 289.386 289.664 288.938C289.944 288 290.742 287.594 291.568 287.594C292.73 287.594 293.514 288.378 293.836 289.638C294.046 290.478 294.2 291.626 294.2 292.606C294.2 293.068 293.584 294.258 293.276 294.398C292.478 294.762 289.384 295.238 286.906 295.238ZM291.428 290.926C291.932 290.926 292.506 290.87 292.954 290.702C292.618 289.456 292.24 288.938 291.442 288.938C290.98 288.938 290.644 289.106 290.406 289.372L290.364 290.17C290.336 290.73 290.644 290.926 291.428 290.926ZM291.568 286.082L290.602 285.102L291.568 284.136L292.534 285.102L291.568 286.082ZM297.409 292.032C297.409 293.236 297.773 293.558 299.117 293.558C299.243 293.628 299.313 293.95 299.313 294.272C299.313 294.58 299.243 294.902 299.117 295C297.157 295 296.345 294.216 296.317 292.34L296.191 284.066L297.409 283.702V292.032ZM310.517 295C309.607 295 308.977 294.748 308.585 294.272C308.165 294.804 307.437 295 306.583 295C305.953 295 305.407 294.776 305.113 294.3C304.735 294.846 303.951 295 303.223 295C302.299 295 301.669 294.748 301.375 294.132C300.913 294.734 300.115 295 299.121 295V293.558C299.877 293.558 300.493 293.446 300.899 293.25L301.249 290.982L302.299 291.066L302.159 292.746C302.117 293.362 302.453 293.558 303.223 293.558C303.671 293.558 304.175 293.502 304.567 293.404L304.875 291.458L305.911 291.528L305.813 292.746C305.757 293.376 305.967 293.558 306.583 293.558C306.961 293.558 307.535 293.516 308.011 293.362L307.521 290.716L308.683 290.296L309.047 292.41C309.215 293.376 309.649 293.558 310.489 293.558H311.105C311.231 293.628 311.301 293.95 311.301 294.272C311.301 294.58 311.231 294.902 311.105 295H310.517ZM306.121 287.706L307.031 288.63L306.121 289.54L305.211 288.63L306.121 287.706ZM303.699 287.706L304.623 288.63L303.699 289.54L302.789 288.63L303.699 287.706ZM304.917 285.858L305.785 286.754L304.917 287.608L304.035 286.754L304.917 285.858ZM317.313 293.558C317.425 293.628 317.495 293.95 317.495 294.272C317.495 294.58 317.425 294.902 317.313 295C316.417 295 315.591 294.776 315.227 294.034C315.045 294.356 314.849 294.636 314.667 294.72C314.149 294.958 313.071 295 311.111 295V293.558C312.707 293.558 313.743 293.558 314.583 293.39L314.639 290.814L315.843 290.604V292.186C315.843 293.25 316.095 293.558 317.271 293.558H317.313ZM312.707 289.26L311.797 288.336L312.707 287.426L313.617 288.336L312.707 289.26ZM315.129 289.26L314.205 288.336L315.129 287.426L316.039 288.336L315.129 289.26ZM317.318 293.558C319.628 293.558 321.98 293.404 323.422 293.138C323.38 291.416 323.31 291.304 322.4 290.856L317.486 288.462C317.486 287.734 317.444 286.936 318.242 286.586L324.066 283.8L324.276 283.94L324.178 285.032L318.732 287.65L322.792 289.75C324.43 290.52 324.458 291.43 324.458 292.606C324.458 293.026 323.856 294.258 323.534 294.398C322.736 294.762 319.642 295 317.318 295V293.558ZM326.601 295.182L326.447 284.066L327.665 283.702V295.056L326.601 295.182Z" fill="black"/>
<circle cx="137.5" cy="294.5" r="136.5" fill="white" fill-opacity="0.7" stroke="black" stroke-width="2"/>
<path d="M124.808 299C122.988 299 121.616 298.748 120.454 298.454L120.692 297.432C121.154 297.488 121.756 297.544 122.652 297.558L123.38 296.928L123.17 288.066L124.388 287.702V294.702C124.388 295.29 124.262 295.766 124.066 296.102L124.178 296.256C126.502 294.324 127.538 293.708 128.308 293.708C129.708 293.708 130.926 295.71 130.926 296.872C130.926 296.97 130.884 297.124 130.828 297.292C131.248 297.474 131.836 297.558 132.718 297.558C132.83 297.628 132.9 297.95 132.9 298.272C132.9 298.58 132.83 298.902 132.718 299C131.682 299 130.856 298.804 130.324 298.23C130.226 298.356 130.128 298.454 130.058 298.496C129.386 298.874 126.39 299 124.808 299ZM124.066 297.558C126.866 297.544 128.938 297.46 129.932 297.222C129.61 295.822 128.756 295.024 128 295.024C127.328 295.024 126.362 295.738 124.066 297.558ZM135.69 296.186C135.69 297.264 136.068 297.558 137.342 297.558C137.454 297.628 137.524 297.95 137.524 298.272C137.524 298.58 137.454 298.902 137.342 299C136.446 299 135.648 298.776 135.214 298.02C135.06 298.314 134.864 298.58 134.696 298.664C134.374 298.944 133.618 299 132.722 299V297.558C133.212 297.558 134.024 297.544 134.598 297.446L134.486 288.066L135.69 287.702V296.186ZM148.739 299C147.829 299 147.199 298.748 146.807 298.272C146.387 298.804 145.659 299 144.805 299C144.175 299 143.629 298.776 143.335 298.3C142.957 298.846 142.173 299 141.445 299C140.521 299 139.891 298.748 139.597 298.132C139.135 298.734 138.337 299 137.343 299V297.558C138.099 297.558 138.715 297.446 139.121 297.25L139.471 294.982L140.521 295.066L140.381 296.746C140.339 297.362 140.675 297.558 141.445 297.558C141.893 297.558 142.397 297.502 142.789 297.404L143.097 295.458L144.133 295.528L144.035 296.746C143.979 297.376 144.189 297.558 144.805 297.558C145.183 297.558 145.757 297.516 146.233 297.362L145.743 294.716L146.905 294.296L147.269 296.41C147.437 297.376 147.871 297.558 148.711 297.558H149.327C149.453 297.628 149.523 297.95 149.523 298.272C149.523 298.58 149.453 298.902 149.327 299H148.739ZM149.333 299V297.558H150.719C151.391 297.558 152.581 297.544 153.477 297.39L152.889 293.708L154.065 293.274C154.261 294.352 154.527 296.48 154.527 296.872C154.527 297.362 153.813 298.608 153.435 298.762C152.973 298.93 151.741 299 150.719 299H149.333ZM150.887 291.916L149.977 290.992L150.887 290.082L151.797 290.992L150.887 291.916ZM153.309 291.916L152.385 290.992L153.309 290.082L154.219 290.992L153.309 291.916Z" fill="black"/>
<path d="M176.023 231.4C172.623 231.4 169.143 230.08 169.143 225.88C169.143 224.98 169.323 222.76 169.523 220.4L172.323 220.7C172.163 222.56 172.083 223.96 172.083 224.4C172.083 226.86 173.543 227.64 176.943 227.64C179.063 227.64 181.763 227.18 183.843 226.58V225.86C183.843 225.36 183.823 225.28 183.263 225.16L178.342 224.14C177.543 223.9 176.503 222.22 176.503 221.54C176.503 220.9 177.143 218.98 177.803 217.52C178.983 214.92 180.203 214.02 181.823 214.02C182.883 214.02 184.643 214.64 186.083 215.22L184.823 218.48C183.223 218 182.443 217.78 181.843 217.78C181.223 217.78 180.843 218.18 179.663 220.78L181.863 221.32C185.883 222.28 186.543 222.86 186.543 225.68C186.543 226.56 185.143 229.36 184.443 229.82C183.703 230.34 179.963 231.4 176.023 231.4ZM187.698 233.86L183.017 233.56L182.717 231.68C188.118 230.1 192.138 228.78 194.378 227.9L192.618 221.66L195.758 220L196.198 222.12C196.538 223.94 197.018 224.2 198.638 224.2C198.858 224.34 199.038 225.14 199.038 226.08C199.038 226.98 198.858 227.8 198.638 228C198.018 228 197.418 227.86 196.878 227.56V227.62C196.618 229.02 195.738 230.82 195.018 231.24C193.898 231.88 188.618 233.86 187.698 233.86ZM198.629 224.2C201.589 224.2 205.629 224.16 208.549 223.86C208.409 221.66 208.169 221.22 206.869 220.72L198.929 217.54C198.929 215.68 198.789 213.76 200.869 212.96L210.229 209.18L210.769 209.56L210.629 212.34L202.509 215.62L207.789 217.88C211.369 219.32 211.309 221.6 211.309 223.3C211.309 224.12 209.809 227.04 209.269 227.22C207.569 227.88 201.869 228 198.629 228V224.2ZM200.569 211.28L200.509 209.66L208.049 206.66L208.109 208.26L200.569 211.28ZM216.678 222.48C216.678 223.84 217.078 224.2 218.598 224.2C218.838 224.34 219.018 225.14 219.018 226.08C219.018 226.98 218.838 227.8 218.598 228C215.338 228 213.858 226.44 213.778 223L213.478 210.54L216.678 209.58V222.48ZM229.17 224.2C229.39 224.34 229.57 225.14 229.57 226.08C229.57 226.98 229.39 227.8 229.17 228C227.77 228 226.29 227.48 225.65 226.24C225.35 226.8 225.03 227.24 224.79 227.4C223.99 227.94 221.45 228 218.59 228V224.2C221.39 224.2 222.99 224.22 224.25 223.96L224.27 220.04L227.43 219.58V222.52C227.43 223.78 227.83 224.2 229.13 224.2H229.17ZM221.11 234.18L219.09 232.16L221.11 230.14L223.13 232.16L221.11 234.18ZM225.27 234.18L223.23 232.16L225.27 230.14L227.29 232.16L225.27 234.18ZM239.576 228.38C239.356 228.38 236.876 227.68 235.516 227.26C234.156 226.88 233.516 226.54 233.096 225.94C231.676 227.48 230.636 228 229.176 228V224.2C230.836 224.2 231.496 223.74 233.516 221.24C235.296 219.06 236.596 218.32 238.076 218.32C239.516 218.32 240.736 218.78 241.836 221.54C242.716 223.82 243.216 224.2 245.576 224.2C245.796 224.34 245.976 225.14 245.976 226.08C245.976 226.98 245.796 227.8 245.576 228C244.296 228 242.676 227.56 241.536 226.54C240.796 227.46 239.876 228.38 239.576 228.38ZM235.316 223.24L239.936 224.68C239.516 223.34 238.876 221.64 237.696 221.64C236.976 221.64 236.396 222 235.316 223.24ZM256.162 224.2C256.382 224.34 256.562 225.14 256.562 226.08C256.562 226.98 256.382 227.8 256.162 228C254.762 228 253.282 227.48 252.642 226.24C252.342 226.8 252.022 227.24 251.782 227.4C250.982 227.94 248.442 228 245.582 228V224.2C248.382 224.2 249.982 224.22 251.242 223.96L251.262 220.04L254.422 219.58V222.52C254.422 223.78 254.822 224.2 256.122 224.2H256.162ZM248.102 234.18L246.082 232.16L248.102 230.14L250.122 232.16L248.102 234.18ZM252.262 234.18L250.222 232.16L252.262 230.14L254.282 232.16L252.262 234.18ZM256.168 224.2C259.128 224.2 263.168 224.16 266.088 223.86C265.948 221.66 265.708 221.22 264.408 220.72L256.468 217.54C256.468 215.68 256.328 213.76 258.408 212.96L267.768 209.18L268.308 209.56L268.168 212.34L260.048 215.62L265.328 217.88C268.908 219.32 268.848 221.6 268.848 223.3C268.848 224.12 267.348 227.04 266.808 227.22C265.108 227.88 259.408 228 256.168 228V224.2Z" fill="black"/>
</svg>
