<svg width="110" height="110" viewBox="0 0 110 110" fill="none" xmlns="http://www.w3.org/2000/svg">
<path d="M101.756 65.3104H94.4873V72.5104H101.756V65.3104Z" fill="#581214"/>
<path d="M101.756 58.1103H94.4873V65.3104H101.756V58.1103Z" fill="#581214"/>
<path d="M101.756 50.9104H94.4873V58.1103H101.756V50.9104Z" fill="#581214"/>
<path d="M109.024 29.3104H101.756V36.5104H109.024V29.3104Z" fill="#581214"/>
<path d="M101.756 43.7104H94.4873V50.9104H101.756V43.7104Z" fill="#581214"/>
<path d="M87.219 43.7104L101.756 36.5104V29.3104L87.219 36.5104V43.7104Z" fill="#581214"/>
<path d="M94.4873 43.7104L101.756 58.1103L109.024 58.1103L101.756 43.7104H94.4873Z" fill="#581214"/>
<path d="M72.6828 50.9104H65.4146V58.1104H72.6828V50.9104Z" fill="#581214"/>
<path d="M58.1462 58.1104V65.3104H65.4145L65.4146 58.1104L58.1462 58.1104Z" fill="#581214"/>
<path d="M50.8779 58.1104V65.3104H58.1462V58.1104H50.8779Z" fill="#581214"/>
<path d="M65.4146 58.1104L65.4145 65.3104H72.6828V58.1104H65.4146Z" fill="#581214"/>
<path d="M43.6096 58.1104V65.3104H50.8779V58.1104H43.6096Z" fill="#581214"/>
<path d="M58.1462 72.5104L72.6828 65.3104V58.1104L58.1462 65.3104V72.5104Z" fill="#581214"/>
<path d="M43.6096 72.5104L58.1462 65.3104V58.1104L43.6096 65.3104V72.5104Z" fill="#581214"/>
<path d="M36.3413 68.7663L50.8779 61.5663V54.3664L36.3413 61.5663V68.7663Z" fill="#581214"/>
<path d="M29.073 58.1104V65.3104H36.3413V58.1104H29.073Z" fill="#581214"/>
<path d="M36.3413 58.1104V65.3104H43.6096V58.1104H36.3413Z" fill="#581214"/>
<path d="M29.0732 72.5104L43.6096 65.3104V58.1104L29.073 65.3104L29.0732 72.5104Z" fill="#581214"/>
<path d="M29.073 51.1983H21.8047V58.3983H29.073V51.1983Z" fill="#581214"/>
<path d="M7.26831 65.3104V72.5104H14.5366V65.3104H7.26831Z" fill="#581214"/>
<path d="M21.8047 58.1104V65.3104H29.073V58.1104H21.8047Z" fill="#581214"/>
<path d="M0 58.1104V65.3104L7.26831 65.3104L7.26826 58.1104H0Z" fill="#581214"/>
<path d="M0 50.9103V58.1104H7.26826L7.26827 50.9103H0Z" fill="#581214"/>
<path d="M0 65.3104V72.5104H7.26831V65.3104L0 65.3104Z" fill="#581214"/>
<path d="M0 58.1104L14.5365 50.9104V43.7103L0 50.9103V58.1104Z" fill="#581214"/>
<path d="M14.5366 72.5104L29.073 65.3104V58.1104L14.5366 65.3104V72.5104Z" fill="#581214"/>
<path d="M29.0731 50.9104L21.8047 65.3104L14.5366 65.3104L21.8048 50.9104H29.0731Z" fill="#581214"/>
<path d="M87.2192 50.9104H79.9509V58.1104H87.2192V50.9104Z" fill="#581214"/>
<path d="M87.2192 58.1104H79.9509V65.3103H87.2192V58.1104Z" fill="#581214"/>
<path d="M87.2192 65.3103H79.9509V72.5104H87.2192V65.3103Z" fill="#581214"/>
<path d="M65.4146 79.7096L79.9509 72.5104V65.3103L65.4146 72.5095V79.7096Z" fill="#581214"/>
</svg>
