<svg width="172" height="75" viewBox="0 0 172 75" fill="none" xmlns="http://www.w3.org/2000/svg">
<g clip-path="url(#clip0_82_3)">
<path d="M84.8792 30H78.8164V36H84.8792V30Z" fill="#581214"/>
<path d="M84.8792 24H78.8164V30H84.8792V24Z" fill="#581214"/>
<path d="M84.8792 18H78.8164V24H84.8792V18Z" fill="#581214"/>
<path d="M90.9417 0H84.8789V6H90.9417V0Z" fill="#581214"/>
<path d="M84.8792 12H78.8164V18H84.8792V12Z" fill="#581214"/>
<path d="M72.7539 12L84.8795 6V0L72.7539 6V12Z" fill="#581214"/>
<path d="M78.8164 12L84.8792 23.9999H90.9419L84.8792 12H78.8164Z" fill="#581214"/>
<path d="M60.6292 18H54.5664V24H60.6292V18Z" fill="#581214"/>
<path d="M48.5039 24V30H54.5667V24H48.5039Z" fill="#581214"/>
<path d="M42.4414 24V30H48.5042V24H42.4414Z" fill="#581214"/>
<path d="M54.5664 24V30H60.6292V24H54.5664Z" fill="#581214"/>
<path d="M36.375 24V30H42.4378V24H36.375Z" fill="#581214"/>
<path d="M48.5039 36L60.6294 30V24L48.5039 30V36Z" fill="#581214"/>
<path d="M36.375 36L48.5006 30V24L36.375 30V36Z" fill="#581214"/>
<path d="M30.3125 32.8798L42.4381 26.8798V20.8799L30.3125 26.8798V32.8798Z" fill="#581214"/>
<path d="M24.25 24V30H30.3128V24H24.25Z" fill="#581214"/>
<path d="M30.3125 24V30H36.3753V24H30.3125Z" fill="#581214"/>
<path d="M24.25 36L36.3755 30V24L24.25 30V36Z" fill="#581214"/>
<path d="M24.2503 18.2397H18.1875V24.2397H24.2503V18.2397Z" fill="#581214"/>
<path d="M6.0625 30V36H12.1253V30H6.0625Z" fill="#581214"/>
<path d="M18.1875 24V30H24.2503V24H18.1875Z" fill="#581214"/>
<path d="M0 24L0 30H6.06279V24H0Z" fill="#581214"/>
<path d="M0 18L0 24H6.0628V18H0Z" fill="#581214"/>
<path d="M0 30L0 36H6.0628V30H0Z" fill="#581214"/>
<path d="M0 24L12.1256 18.0001V12L3.14444e-08 18.0001L0 24Z" fill="#581214"/>
<path d="M12.125 36L24.2505 30V24L12.125 30V36Z" fill="#581214"/>
<path d="M24.2505 18L18.1878 30L12.125 29.9999L18.1878 18H24.2505Z" fill="#581214"/>
<path d="M72.7542 18H66.6914V24H72.7542V18Z" fill="#581214"/>
<path d="M72.7542 24H66.6914V30H72.7542V24Z" fill="#581214"/>
<path d="M72.7542 30H66.6914V36H72.7542V30Z" fill="#581214"/>
<path d="M54.5664 41.9996L66.692 35.9995V29.9995L54.5664 35.9995V41.9996Z" fill="#581214"/>
<path d="M170.918 18.4912H164.855V24.4912H170.918V18.4912Z" fill="#581214"/>
<path d="M158.793 24.4917V30.4917H164.856V24.4917H158.793Z" fill="#581214"/>
<path d="M152.73 24.4917V30.4917H158.793V24.4917H152.73Z" fill="#581214"/>
<path d="M164.855 24.4917V30.4917H170.918V24.4917H164.855Z" fill="#581214"/>
<path d="M158.793 36.4922L170.918 30.4921V24.4922L158.793 30.4921V36.4922Z" fill="#581214"/>
<path d="M152.738 36.4288L164.864 30.4287V24.4287L152.738 30.4287V36.4288Z" fill="#581214"/>
<path d="M140.645 30.4439L152.771 24.4438V18.4438L140.645 24.4438V30.4439Z" fill="#581214"/>
<path d="M128.551 42.4117L140.677 36.4116V30.4116L128.551 36.4116V42.4117Z" fill="#581214"/>
<path d="M140.645 30.4126V36.4126H146.707V30.4126H140.645Z" fill="#581214"/>
<path d="M140.645 24.4282V30.4282H146.707V24.4282H140.645Z" fill="#581214"/>
<path d="M134.614 24.3408H128.551V30.3408H134.614V24.3408Z" fill="#581214"/>
<path d="M134.614 18.3398H128.551V24.3398H134.614V18.3398Z" fill="#581214"/>
<path d="M134.614 12.3403H128.551V18.3403H134.614V12.3403Z" fill="#581214"/>
<path d="M122.692 21.0806H116.629V27.0806H122.692V21.0806Z" fill="#581214"/>
<path d="M104.504 32.8403V38.8403H110.567V32.8403H104.504Z" fill="#581214"/>
<path d="M116.629 26.8403V32.8403H122.692V26.8403H116.629Z" fill="#581214"/>
<path d="M98.4414 26.8403V32.8403H104.504V26.8403H98.4414Z" fill="#581214"/>
<path d="M98.4414 20.8403V26.8403H104.504V20.8403H98.4414Z" fill="#581214"/>
<path d="M98.4414 32.8403V38.8403H104.504V32.8403H98.4414Z" fill="#581214"/>
<path d="M98.4414 26.8404L110.567 20.8403V14.8403L98.4414 20.8403V26.8404Z" fill="#581214"/>
<path d="M110.566 38.8403L122.692 32.8403V26.8403L110.566 32.8403V38.8403Z" fill="#581214"/>
<path d="M122.692 20.8403L116.629 32.8403H110.566L116.629 20.8403H122.692Z" fill="#581214"/>
</g>
<path d="M2.4 63.36L1.28 62.24L2.4 61.12L3.52 62.24L2.4 63.36ZM12.4449 67.2C10.5889 67.2 8.63688 66.832 8.63688 64.288C8.63688 63.712 8.71687 62.56 8.82888 61.264L9.46887 61.328C9.35687 62.656 9.29288 63.632 9.29288 63.936C9.29288 65.696 10.2529 66.24 12.6849 66.24C14.2369 66.24 16.9409 65.728 18.5249 65.072L17.8689 60.512L18.6369 60.16L18.8609 61.696C19.0369 62.848 19.3089 63.04 20.5729 63.04C20.6849 63.12 20.7329 63.344 20.7329 63.52C20.7329 63.696 20.6849 63.904 20.5729 64C20.0129 64 19.4849 63.872 19.1169 63.632C19.1649 64.064 19.1969 64.416 19.1969 64.608C19.1969 64.928 18.8129 65.696 18.5569 65.872C17.5169 66.544 14.4769 67.2 12.4449 67.2ZM13.5969 62.08L12.7969 61.264L13.5969 60.48L14.3969 61.264L13.5969 62.08ZM23.1356 63.04C25.9196 63.04 28.3356 62.8 29.6316 62.464C29.6156 60.4 29.5996 60.384 28.5436 59.808L23.3116 56.976C23.3116 56.48 23.2796 55.872 23.8236 55.584L30.0636 52.32L30.2076 52.416L30.0956 53.168L23.9996 56.352L28.8636 59.04C30.2396 59.792 30.3036 60.448 30.3036 61.776C30.3036 62.176 29.8716 63.12 29.5356 63.28C28.8476 63.648 25.8236 64 23.1356 64V63.04ZM36.715 67.552C39.947 66.432 42.923 65.392 44.059 64.656L43.499 61.568L43.947 60.896L48.363 59.888L48.731 60.192L48.779 61.552C48.859 62.704 49.243 63.04 50.459 63.04C50.571 63.12 50.619 63.344 50.619 63.52C50.619 63.696 50.571 63.904 50.459 64C48.875 64 48.107 63.328 48.011 61.84L47.947 60.816L44.347 61.648C44.539 62.896 44.651 63.68 44.651 64.128C44.651 64.624 44.331 65.328 43.979 65.6C42.923 66.384 38.059 68 38.027 68H36.747L36.715 67.552ZM43.451 58.4L42.651 57.584L43.451 56.8L44.251 57.584L43.451 58.4ZM45.963 67.92L45.195 67.136L45.963 66.4L46.715 67.136L45.963 67.92ZM48.443 67.92L47.675 67.136L48.443 66.4L49.195 67.136L48.443 67.92ZM56.9547 66.88C55.4187 66.88 54.1067 66.336 54.1067 63.936C53.7867 63.984 53.4667 64 53.0187 64V63.04H54.1547C54.3627 61.68 55.2747 60.192 56.2987 58.72L57.0667 58.784L57.6107 61.12C57.7227 61.6 57.7867 61.904 57.7867 62.128C57.7867 62.672 57.5947 63.04 57.2107 63.312L57.2587 63.376C57.8667 63.04 58.6187 63.04 60.2187 63.04C60.3307 63.12 60.3787 63.344 60.3787 63.52C60.3787 63.696 60.3307 63.904 60.2187 64H58.6187C58.9707 64.352 59.2107 64.848 59.2107 65.504C59.2107 65.792 59.1307 65.952 58.8107 66.272C58.2987 66.784 58.0587 66.88 56.9547 66.88ZM56.9547 65.92C57.7707 65.92 58.1707 65.904 58.5867 65.792C58.2507 64 57.3227 63.936 54.8267 63.936C54.8267 65.6 55.9147 65.92 56.9547 65.92ZM54.8747 63.104C55.8027 63.04 56.5547 62.928 57.0987 62.688C57.0827 62.288 57.0027 61.904 56.8107 61.136L56.4587 59.744C55.6587 60.944 55.0347 62.096 54.8747 63.104ZM70.7179 61.584C71.3099 62.56 72.1099 63.04 73.9819 63.04C74.0939 63.12 74.1419 63.344 74.1419 63.52C74.1419 63.696 74.0939 63.904 73.9819 64C71.5659 64 70.8139 63.216 70.0299 61.856C68.2539 62.624 65.9659 64 62.8139 64H62.7819V63.04H63.1339C66.8619 63.04 68.4139 61.424 70.7979 60.88C68.3179 60.032 66.1419 59.328 65.5819 59.328C65.1659 59.328 64.9579 59.552 64.1739 60.784L63.6139 60.496C64.6379 58.72 64.9579 58.4 65.6299 58.4C66.3979 58.4 69.4219 59.552 73.0379 60.704L72.8139 61.488C71.9499 61.28 71.5659 61.296 70.7179 61.584ZM68.3819 66.88L67.5819 66.064L68.3819 65.28L69.1819 66.064L68.3819 66.88ZM76.545 64V63.04H77.985C78.449 63.04 79.937 63.04 81.025 62.832L80.401 58.912L81.169 58.56C81.377 59.712 81.665 61.792 81.665 62.192C81.665 62.672 81.089 63.616 80.689 63.76C80.145 63.952 78.913 64 77.985 64H76.545ZM78.033 56.8L77.265 56.016L78.033 55.28L78.785 56.016L78.033 56.8ZM80.513 56.8L79.745 56.016L80.513 55.28L81.265 56.016L80.513 56.8ZM96.5895 64.16C92.9895 64.16 91.7575 63.392 91.7575 61.296C91.7575 60.816 91.8215 60.16 91.9335 59.2L92.4935 59.232C92.4135 60.128 92.3655 60.704 92.3655 61.024C92.3655 62.592 93.4855 63.2 96.7495 63.2C99.5335 63.2 101.982 62.832 103.278 62.464L102.67 58.768L103.438 58.416C103.614 59.44 103.918 61.456 103.918 61.776C103.918 62.224 103.454 63.12 103.15 63.28C102.462 63.648 99.4375 64.16 96.5895 64.16ZM96.5255 59.52L95.7575 58.736L96.5255 58L97.2775 58.736L96.5255 59.52ZM99.0055 59.52L98.2375 58.736L99.0055 58L99.7575 58.736L99.0055 59.52ZM104.075 67.552C107.307 66.432 110.283 65.392 111.419 64.656L110.635 60.368L111.419 60C111.723 61.744 112.011 63.68 112.011 64.128C112.011 64.624 111.691 65.328 111.339 65.6C110.283 66.384 105.419 68 105.387 68H104.107L104.075 67.552ZM117.927 61.12C117.927 62.64 118.391 63.04 120.087 63.04C120.199 63.12 120.247 63.344 120.247 63.52C120.247 63.696 120.199 63.904 120.087 64C118.039 64 117.223 63.28 117.207 61.44L117.127 52.24L117.927 52V61.12ZM134.482 64C133.618 64 132.962 63.744 132.562 63.28C132.114 63.84 131.314 64 130.482 64C129.874 64 129.282 63.76 129.01 63.248C128.642 63.872 127.698 64 126.962 64C126.066 64 125.41 63.792 125.138 63.2C124.594 63.792 123.682 64 122.642 64V63.04C123.65 63.04 124.402 62.88 124.802 62.608L125.154 60.32L125.794 60.368L125.634 62.224C125.586 62.832 126.05 63.04 126.962 63.04C127.506 63.04 128.146 62.976 128.626 62.848L128.946 60.8L129.618 60.848L129.49 62.224C129.442 62.832 129.746 63.04 130.482 63.04C130.85 63.04 131.57 62.992 132.146 62.784L131.634 60.032L132.418 59.68L132.77 61.712C132.962 62.816 133.586 63.04 134.482 63.04H135.282C135.394 63.12 135.442 63.344 135.442 63.52C135.442 63.696 135.394 63.904 135.282 64H134.482ZM138.674 60.496C139.698 58.72 140.018 58.4 140.69 58.4C141.458 58.4 144.482 59.552 148.098 60.704L147.874 61.488C147.474 61.392 147.202 61.344 146.946 61.344C144.962 61.344 142.242 64 137.874 64H137.842V63.04H138.194C141.922 63.04 143.474 61.424 145.858 60.88C143.378 60.032 141.202 59.328 140.642 59.328C140.226 59.328 140.018 59.552 139.234 60.784L138.674 60.496ZM142.802 66.88L142.002 66.064L142.802 65.28L143.602 66.064L142.802 66.88ZM158.98 61.12C158.98 62.64 159.444 63.04 161.14 63.04C161.252 63.12 161.3 63.344 161.3 63.52C161.3 63.696 161.252 63.904 161.14 64C159.092 64 158.276 63.28 158.26 61.44L158.18 52.24L158.98 52V61.12ZM163.694 64V63.04H165.134C165.598 63.04 167.086 63.04 168.174 62.832L167.55 58.912L168.318 58.56C168.526 59.712 168.814 61.792 168.814 62.192C168.814 62.672 168.238 63.616 167.838 63.76C167.294 63.952 166.062 64 165.134 64H163.694ZM165.774 68L164.974 67.184L165.774 66.4L166.574 67.184L165.774 68Z" fill="black"/>
<defs>
<clipPath id="clip0_82_3">
<rect width="171" height="45" fill="white"/>
</clipPath>
</defs>
</svg>
