<svg width="205" height="54" viewBox="0 0 205 54" fill="none" xmlns="http://www.w3.org/2000/svg">
<g clip-path="url(#clip0_1_18698)">
<path d="M101.756 36.0001H94.4873V43.2001H101.756V36.0001Z" fill="#581214"/>
<path d="M101.756 28.7999H94.4873V35.9999H101.756V28.7999Z" fill="#581214"/>
<path d="M101.756 21.6H94.4873V28.8H101.756V21.6Z" fill="#581214"/>
<path d="M109.024 0H101.756V7.2H109.024V0Z" fill="#581214"/>
<path d="M101.756 14.4H94.4873V21.6H101.756V14.4Z" fill="#581214"/>
<path d="M87.219 14.4001L101.756 7.2V0L87.219 7.2V14.4001Z" fill="#581214"/>
<path d="M94.4873 14.4L101.756 28.7999H109.024L101.756 14.4H94.4873Z" fill="#581214"/>
<path d="M72.6828 21.6H65.4146V28.8H72.6828V21.6Z" fill="#581214"/>
<path d="M58.1462 28.8001V36.0001H65.4145V28.8001H58.1462Z" fill="#581214"/>
<path d="M50.8779 28.8001V36.0001H58.1462V28.8001H50.8779Z" fill="#581214"/>
<path d="M65.4146 28.8001V36.0001H72.6828V28.8001H65.4146Z" fill="#581214"/>
<path d="M43.6096 28.8001V36.0001H50.8779V28.8001H43.6096Z" fill="#581214"/>
<path d="M58.1462 43.2L72.6827 35.9999V28.7999L58.1462 35.9999V43.2Z" fill="#581214"/>
<path d="M43.6096 43.2L58.1462 35.9999V28.7999L43.6096 35.9999V43.2Z" fill="#581214"/>
<path d="M36.3413 39.4559L50.8779 32.256V25.056L36.3413 32.256V39.4559Z" fill="#581214"/>
<path d="M29.073 28.8001V36.0001H36.3413V28.8001H29.073Z" fill="#581214"/>
<path d="M36.3413 28.8001V36.0001H43.6096V28.8001H36.3413Z" fill="#581214"/>
<path d="M29.0732 43.2L43.6097 35.9999V28.7999L29.0732 35.9999V43.2Z" fill="#581214"/>
<path d="M29.073 21.8879H21.8047V29.0879H29.073V21.8879Z" fill="#581214"/>
<path d="M7.26831 36L7.26831 43.2H14.5366V36H7.26831Z" fill="#581214"/>
<path d="M21.8047 28.8001V36.0001H29.073V28.8001H21.8047Z" fill="#581214"/>
<path d="M0 28.8001L0 36.0001H7.26826L7.26826 28.8001H0Z" fill="#581214"/>
<path d="M0 21.5999L0 28.7999H7.26827L7.26827 21.5999H0Z" fill="#581214"/>
<path d="M0 36L0 43.2H7.26827L7.26827 36H0Z" fill="#581214"/>
<path d="M0 28.8L14.5365 21.6V14.3999L3.76965e-08 21.6L0 28.8Z" fill="#581214"/>
<path d="M14.5366 43.2L29.0731 35.9999V28.7999L14.5366 35.9999V43.2Z" fill="#581214"/>
<path d="M29.0731 21.6L21.8048 36L14.5366 35.9999L21.8048 21.6H29.0731Z" fill="#581214"/>
<path d="M87.2192 21.6H79.9509V28.8H87.2192V21.6Z" fill="#581214"/>
<path d="M87.2192 28.7999H79.9509V35.9999H87.2192V28.7999Z" fill="#581214"/>
<path d="M87.2192 36.0001H79.9509V43.2001H87.2192V36.0001Z" fill="#581214"/>
<path d="M65.4146 50.3993L79.9511 43.1992V35.9992L65.4146 43.1992V50.3993Z" fill="#581214"/>
<path d="M204.903 25.1904H197.635V32.3904H204.903V25.1904Z" fill="#581214"/>
<path d="M190.367 32.3905V39.5905H197.635V32.3905H190.367Z" fill="#581214"/>
<path d="M183.098 32.3905V39.5905H190.366V32.3905H183.098Z" fill="#581214"/>
<path d="M197.635 32.3905V39.5905H204.903V32.3905H197.635Z" fill="#581214"/>
<path d="M190.367 46.7904L204.903 39.5903V32.3904L190.367 39.5903V46.7904Z" fill="#581214"/>
<path d="M183.108 46.7139L197.645 39.5138V32.3138L183.108 39.5138V46.7139Z" fill="#581214"/>
<path d="M168.61 39.533L183.147 32.3329V25.133L168.61 32.3329V39.533Z" fill="#581214"/>
<path d="M154.113 53.8947L168.65 46.6946V39.4947L154.113 46.6946V53.8947Z" fill="#581214"/>
<path d="M168.61 39.4946V46.6946H175.879V39.4946H168.61Z" fill="#581214"/>
<path d="M168.61 32.3138V39.5138H175.879V32.3138H168.61Z" fill="#581214"/>
<path d="M161.381 32.2086H154.113V39.4086H161.381V32.2086Z" fill="#581214"/>
<path d="M161.381 25.0086H154.113V32.2086H161.381V25.0086Z" fill="#581214"/>
<path d="M161.381 17.8085H154.113V25.0085H161.381V17.8085Z" fill="#581214"/>
<path d="M147.086 25.2966H139.818V32.4966H147.086V25.2966Z" fill="#581214"/>
<path d="M125.281 39.4085V46.6085H132.549V39.4085H125.281Z" fill="#581214"/>
<path d="M139.818 32.2085V39.4085H147.086V32.2085H139.818Z" fill="#581214"/>
<path d="M118.013 32.2085V39.4085H125.281V32.2085H118.013Z" fill="#581214"/>
<path d="M118.013 25.0086V32.2086H125.281V25.0086H118.013Z" fill="#581214"/>
<path d="M118.013 39.4085V46.6085H125.281V39.4085H118.013Z" fill="#581214"/>
<path d="M118.013 32.2086L132.549 25.0085V17.8085L118.013 25.0085V32.2086Z" fill="#581214"/>
<path d="M132.549 46.6085L147.085 39.4085V32.2086L132.549 39.4085V46.6085Z" fill="#581214"/>
<path d="M147.085 25.0086L139.818 39.4085H132.549L139.818 25.0086H147.085Z" fill="#581214"/>
</g>
<defs>
<clipPath id="clip0_1_18698">
<rect width="205" height="54" fill="white"/>
</clipPath>
</defs>
</svg>
