<svg width="122" height="12" viewBox="0 0 122 12" fill="none" xmlns="http://www.w3.org/2000/svg">
<g id="En Logotype" clip-path="url(#clip0_7_46396)">
<path id="Vector" d="M0 8.96423H2.95801V11.9524H0V8.96423Z" fill="#581214"/>
<path id="Vector_2" d="M0 5.97614H2.95801V8.96423H0V5.97614Z" fill="#581214"/>
<path id="Vector_3" d="M5.9165 -0.00024401L2.9585 5.97591H0.000488281L2.95849 -0.000244141L5.9165 -0.00024401Z" fill="#581214"/>
<path id="Vector_4" d="M8.87403 5.97619L5.91602 1.30621e-07L2.95801 0L5.916 5.97619H8.87403Z" fill="#581214"/>
<path id="Vector_5" d="M5.91602 5.9762H8.87405V8.96426H5.91603L5.91602 5.9762Z" fill="#581214"/>
<path id="Vector_6" d="M2.95801 5.97614L8.87403 8.96423V11.9523L2.95801 8.96423V5.97614Z" fill="#581214"/>
<path id="Vector_7" d="M11.9326 8.96423H14.8906V11.9524H11.9326V8.96423Z" fill="#581214"/>
<path id="Vector_8" d="M11.9326 5.9762H14.8906V8.96424H11.9326V5.9762Z" fill="#581214"/>
<path id="Vector_9" d="M14.8906 0H17.8487V2.98808H14.8906V0Z" fill="#581214"/>
<path id="Vector_10" d="M11.9326 2.9881L14.8906 2.9881V5.9762H11.9326V2.9881Z" fill="#581214"/>
<path id="Vector_11" d="M20.8066 1.60512e-05L17.8486 5.97617H14.8906L17.8487 0L20.8066 1.60512e-05Z" fill="#581214"/>
<path id="Vector_12" d="M11.9326 2.77608e-06L14.8906 0V2.98808L11.9326 2.98807V2.77608e-06Z" fill="#581214"/>
<path id="Vector_13" d="M14.8906 5.9762L20.8066 8.96424V11.9524L14.8906 8.96424V5.9762Z" fill="#581214"/>
<path id="Vector_14" d="M29.7812 0H32.7392V2.98808H29.7812V0Z" fill="#581214"/>
<path id="Vector_15" d="M23.8652 0H26.8232V2.98808H23.8652V0Z" fill="#581214"/>
<path id="Vector_16" d="M26.8232 5.9762H29.7812V8.96427H26.8232V5.9762Z" fill="#581214"/>
<path id="Vector_17" d="M26.8232 8.96423H29.7812V11.9524H26.8232V8.96423Z" fill="#581214"/>
<path id="Vector_18" d="M26.8232 0H29.7812V2.98808H26.8232V0Z" fill="#581214"/>
<path id="Vector_19" d="M23.8652 0L29.7812 2.98808V5.97615L23.8652 2.98808V0Z" fill="#581214"/>
<path id="Vector_20" d="M23.8652 5.97621L26.8232 11.9524H29.7812L26.8232 5.9762L23.8652 5.97621Z" fill="#581214"/>
<path id="Vector_21" d="M41.7139 0H44.6719V2.98808H41.7139V0Z" fill="#581214"/>
<path id="Vector_22" d="M38.7559 5.9762H41.7139V8.96424H38.7559V5.9762Z" fill="#581214"/>
<path id="Vector_23" d="M38.7559 8.96423H41.7139V11.9524H38.7559V8.96423Z" fill="#581214"/>
<path id="Vector_24" d="M41.7139 8.96423H44.6719V11.9524H41.7139V8.96423Z" fill="#581214"/>
<path id="Vector_25" d="M38.7559 0H41.7139V2.98808H38.7559V0Z" fill="#581214"/>
<path id="Vector_26" d="M35.7979 2.77608e-06L38.7558 0V2.98808L35.7979 2.98808V2.77608e-06Z" fill="#581214"/>
<path id="Vector_27" d="M35.7979 2.77608e-06L38.7558 5.97617H41.7138L38.7558 0L35.7979 2.77608e-06Z" fill="#581214"/>
<path id="Vector_28" d="M35.7979 5.9762L38.7558 11.9524H41.7138L38.7558 5.97621L35.7979 5.9762Z" fill="#581214"/>
<path id="Vector_29" d="M53.6465 0H56.6045V2.98808H53.6465V0Z" fill="#581214"/>
<path id="Vector_30" d="M50.6885 5.9762H53.6465V8.96424H50.6885V5.9762Z" fill="#581214"/>
<path id="Vector_31" d="M50.6885 8.96423H53.6465V11.9524H50.6885V8.96423Z" fill="#581214"/>
<path id="Vector_32" d="M50.6885 0H53.6465V2.98808H50.6885V0Z" fill="#581214"/>
<path id="Vector_33" d="M47.7305 2.77608e-06L50.6885 0V2.98808L47.7305 2.98808V2.77608e-06Z" fill="#581214"/>
<path id="Vector_34" d="M47.7305 0L53.6465 2.98807L53.6465 5.97617L47.7305 2.98808V0Z" fill="#581214"/>
<path id="Vector_35" d="M47.7305 5.9762L50.6885 11.9524H53.6465L50.6885 5.97621L47.7305 5.9762Z" fill="#581214"/>
<path id="Vector_36" d="M59.3965 8.95837H62.3515V11.9434H59.3965V8.95837Z" fill="#581214"/>
<path id="Vector_37" d="M71.3203 0H74.2759V2.98585H71.3203V0Z" fill="#581214"/>
<path id="Vector_38" d="M68.3647 5.97174H71.3203V8.95759H68.3647V5.97174Z" fill="#581214"/>
<path id="Vector_39" d="M68.3647 8.95758H71.3203V11.9434H68.3647V8.95758Z" fill="#581214"/>
<path id="Vector_40" d="M68.3647 0H71.3203V2.98585H68.3647V0Z" fill="#581214"/>
<path id="Vector_41" d="M65.4082 0H68.3644V2.98585H65.4082V0Z" fill="#581214"/>
<path id="Vector_42" d="M65.4082 0L71.3199 2.98585V5.97171L65.4082 2.98585V0Z" fill="#581214"/>
<path id="Vector_43" d="M65.4082 5.97168L68.3644 11.9434H71.3199L68.3644 5.97173L65.4082 5.97168Z" fill="#581214"/>
<path id="Vector_44" d="M83.2441 0H86.1997V2.98585H83.2441V0Z" fill="#581214"/>
<path id="Vector_45" d="M80.2876 5.97168H83.2438V8.9575H80.2876V5.97168Z" fill="#581214"/>
<path id="Vector_46" d="M80.2876 3.27026H83.2438V6.2561H80.2876V3.27026Z" fill="#581214"/>
<path id="Vector_47" d="M80.2876 8.95752H83.2438V11.9434H80.2876V8.95752Z" fill="#581214"/>
<path id="Vector_48" d="M80.2876 0H83.2438V2.98585H80.2876V0Z" fill="#581214"/>
<path id="Vector_49" d="M77.332 0H80.2876V2.98585H77.332V0Z" fill="#581214"/>
<path id="Vector_50" d="M77.332 0L83.2437 2.98585V5.97168L77.332 2.98585V0Z" fill="#581214"/>
<path id="Vector_51" d="M95.1676 0.182739L92.2114 6.15444H89.2559L92.2114 0.182739H95.1676Z" fill="#581214"/>
<path id="Vector_52" d="M92.2114 11.9434L95.1676 5.97168H98.1231L95.1676 11.9434H92.2114Z" fill="#581214"/>
<path id="Vector_53" d="M98.1231 6.1545L95.1676 0.182739H92.2114L95.1676 6.1545H98.1231Z" fill="#581214"/>
<path id="Vector_54" d="M89.2559 5.97168L92.2114 11.9434H95.1676L92.2114 5.97168H89.2559Z" fill="#581214"/>
<path id="Vector_55" d="M101.18 8.95758H104.135V11.9434H101.18V8.95758Z" fill="#581214"/>
<path id="Vector_56" d="M101.18 5.97168H104.135V8.95756H101.18V5.97168Z" fill="#581214"/>
<path id="Vector_57" d="M104.135 0H107.091V2.98585H104.135V0Z" fill="#581214"/>
<path id="Vector_58" d="M101.18 2.98584L104.135 2.98586V5.9717H101.18V2.98584Z" fill="#581214"/>
<path id="Vector_59" d="M110.047 0L107.091 5.9717H104.135L107.091 1.7656e-05L110.047 0Z" fill="#581214"/>
<path id="Vector_60" d="M101.18 0H104.135V2.98585L101.18 2.98583V0Z" fill="#581214"/>
<path id="Vector_61" d="M104.135 5.97168L110.047 8.9575V11.9434L104.135 8.9575V5.97168Z" fill="#581214"/>
<path id="Vector_62" d="M119.015 0H121.971V2.98585H119.015V0Z" fill="#581214"/>
<path id="Vector_63" d="M116.059 5.97168H119.015V8.9575H116.059V5.97168Z" fill="#581214"/>
<path id="Vector_64" d="M116.059 8.95752H119.015V11.9434H116.059V8.95752Z" fill="#581214"/>
<path id="Vector_65" d="M119.015 8.95752L121.971 8.95758V11.9434H119.015V8.95752Z" fill="#581214"/>
<path id="Vector_66" d="M116.059 0H119.015V2.98585H116.059V0Z" fill="#581214"/>
<path id="Vector_67" d="M113.104 0H116.059V2.98585H113.104V0Z" fill="#581214"/>
<path id="Vector_68" d="M113.104 0L116.059 5.97168H119.015L116.059 0H113.104Z" fill="#581214"/>
<path id="Vector_69" d="M113.104 5.97168L116.059 11.9434H119.015L116.059 5.9717L113.104 5.97168Z" fill="#581214"/>
<g id="Mask group">
<mask id="mask0_7_46396" style="mask-type:luminance" maskUnits="userSpaceOnUse" x="0" y="-1" width="122" height="13">
<g id="Group">
<path id="Vector_70" d="M0.000488281 8.96423H2.9585V11.9524H0.000488281V8.96423Z" fill="white"/>
<path id="Vector_71" d="M0.000488281 5.97614H2.9585V8.96423H0.000488281V5.97614Z" fill="white"/>
<path id="Vector_72" d="M5.9165 -0.00024401L2.9585 5.97591H0.000488281L2.95849 -0.000244141L5.9165 -0.00024401Z" fill="white"/>
<path id="Vector_73" d="M8.87452 5.97619L5.91651 1.30621e-07L2.9585 0L5.91649 5.97619H8.87452Z" fill="white"/>
<path id="Vector_74" d="M5.91602 5.9762H8.87405V8.96426H5.91603L5.91602 5.9762Z" fill="white"/>
<path id="Vector_75" d="M2.9585 5.97614L8.87452 8.96423V11.9523L2.9585 8.96423V5.97614Z" fill="white"/>
<path id="Vector_76" d="M11.9331 8.96423H14.8911V11.9524H11.9331V8.96423Z" fill="white"/>
<path id="Vector_77" d="M11.9331 5.9762H14.8911V8.96424H11.9331V5.9762Z" fill="white"/>
<path id="Vector_78" d="M14.8911 0H17.8492V2.98808H14.8911V0Z" fill="white"/>
<path id="Vector_79" d="M11.9331 2.9881L14.8911 2.9881V5.9762H11.9331V2.9881Z" fill="white"/>
<path id="Vector_80" d="M20.8071 1.60512e-05L17.8491 5.97617H14.8911L17.8492 0L20.8071 1.60512e-05Z" fill="white"/>
<path id="Vector_81" d="M11.9331 2.77608e-06L14.8911 0V2.98808L11.9331 2.98807V2.77608e-06Z" fill="white"/>
<path id="Vector_82" d="M14.8911 5.9762L20.8071 8.96424V11.9524L14.8911 8.96424V5.9762Z" fill="white"/>
<path id="Vector_83" d="M29.7817 0H32.7397V2.98808H29.7817V0Z" fill="white"/>
<path id="Vector_84" d="M23.8657 0H26.8237V2.98808H23.8657V0Z" fill="white"/>
<path id="Vector_85" d="M26.8237 5.9762H29.7817V8.96427H26.8237V5.9762Z" fill="white"/>
<path id="Vector_86" d="M26.8237 8.96423H29.7817V11.9524H26.8237V8.96423Z" fill="white"/>
<path id="Vector_87" d="M26.8237 0H29.7817V2.98808H26.8237V0Z" fill="white"/>
<path id="Vector_88" d="M23.8657 0L29.7817 2.98808V5.97615L23.8657 2.98808V0Z" fill="white"/>
<path id="Vector_89" d="M23.8657 5.97621L26.8237 11.9524H29.7817L26.8237 5.9762L23.8657 5.97621Z" fill="white"/>
<path id="Vector_90" d="M41.7144 0H44.6724V2.98808H41.7144V0Z" fill="white"/>
<path id="Vector_91" d="M38.7563 5.9762H41.7143V8.96424H38.7563V5.9762Z" fill="white"/>
<path id="Vector_92" d="M38.7563 8.96423H41.7143V11.9524H38.7563V8.96423Z" fill="white"/>
<path id="Vector_93" d="M41.7144 8.96423H44.6724V11.9524H41.7144V8.96423Z" fill="white"/>
<path id="Vector_94" d="M38.7563 0H41.7143V2.98808H38.7563V0Z" fill="white"/>
<path id="Vector_95" d="M35.7983 2.77608e-06L38.7563 0V2.98808L35.7983 2.98808V2.77608e-06Z" fill="white"/>
<path id="Vector_96" d="M35.7983 2.77608e-06L38.7563 5.97617H41.7143L38.7563 0L35.7983 2.77608e-06Z" fill="white"/>
<path id="Vector_97" d="M35.7983 5.9762L38.7563 11.9524H41.7143L38.7563 5.97621L35.7983 5.9762Z" fill="white"/>
<path id="Vector_98" d="M53.647 0H56.605V2.98808H53.647V0Z" fill="white"/>
<path id="Vector_99" d="M50.689 5.9762H53.647V8.96424H50.689V5.9762Z" fill="white"/>
<path id="Vector_100" d="M50.689 8.96423H53.647V11.9524H50.689V8.96423Z" fill="white"/>
<path id="Vector_101" d="M50.689 0H53.647V2.98808H50.689V0Z" fill="white"/>
<path id="Vector_102" d="M47.731 2.77608e-06L50.689 0V2.98808L47.731 2.98808V2.77608e-06Z" fill="white"/>
<path id="Vector_103" d="M47.731 0L53.6469 2.98807L53.647 5.97617L47.731 2.98808V0Z" fill="white"/>
<path id="Vector_104" d="M47.731 5.9762L50.689 11.9524H53.647L50.689 5.97621L47.731 5.9762Z" fill="white"/>
<path id="Vector_105" d="M59.3965 8.95837H62.3515V11.9434H59.3965V8.95837Z" fill="white"/>
<path id="Vector_106" d="M71.3203 0H74.2759V2.98585H71.3203V0Z" fill="white"/>
<path id="Vector_107" d="M68.3647 5.97174H71.3203V8.95759H68.3647V5.97174Z" fill="white"/>
<path id="Vector_108" d="M68.3647 8.95758H71.3203V11.9434H68.3647V8.95758Z" fill="white"/>
<path id="Vector_109" d="M68.3647 0H71.3203V2.98585H68.3647V0Z" fill="white"/>
<path id="Vector_110" d="M65.4087 0H68.3648V2.98585H65.4087V0Z" fill="white"/>
<path id="Vector_111" d="M65.4087 0L71.3204 2.98585V5.97171L65.4087 2.98585V0Z" fill="white"/>
<path id="Vector_112" d="M65.4087 5.97168L68.3648 11.9434H71.3204L68.3648 5.97173L65.4087 5.97168Z" fill="white"/>
<path id="Vector_113" d="M83.2441 0H86.1997V2.98585H83.2441V0Z" fill="white"/>
<path id="Vector_114" d="M80.2881 5.97168H83.2442V8.9575H80.2881V5.97168Z" fill="white"/>
<path id="Vector_115" d="M80.2881 3.27026H83.2442V6.2561H80.2881V3.27026Z" fill="white"/>
<path id="Vector_116" d="M80.2881 8.95752H83.2442V11.9434H80.2881V8.95752Z" fill="white"/>
<path id="Vector_117" d="M80.2881 0H83.2442V2.98585H80.2881V0Z" fill="white"/>
<path id="Vector_118" d="M77.3325 0H80.2881V2.98585H77.3325V0Z" fill="white"/>
<path id="Vector_119" d="M77.3325 0L83.2442 2.98585V5.97168L77.3325 2.98585V0Z" fill="white"/>
<path id="Vector_120" d="M95.1681 0.182739L92.2119 6.15444H89.2563L92.2119 0.182739H95.1681Z" fill="white"/>
<path id="Vector_121" d="M92.2119 11.9434L95.1681 5.97168H98.1236L95.1681 11.9434H92.2119Z" fill="white"/>
<path id="Vector_122" d="M98.1236 6.1545L95.1681 0.182739H92.2119L95.1681 6.1545H98.1236Z" fill="white"/>
<path id="Vector_123" d="M89.2563 5.97168L92.2119 11.9434H95.1681L92.2119 5.97168H89.2563Z" fill="white"/>
<path id="Vector_124" d="M101.18 8.95758H104.136V11.9434H101.18V8.95758Z" fill="white"/>
<path id="Vector_125" d="M101.18 5.97168H104.136V8.95756H101.18V5.97168Z" fill="white"/>
<path id="Vector_126" d="M104.136 0H107.092V2.98585H104.136V0Z" fill="white"/>
<path id="Vector_127" d="M101.18 2.98584L104.136 2.98586V5.9717H101.18V2.98584Z" fill="white"/>
<path id="Vector_128" d="M110.047 0L107.092 5.9717H104.136L107.092 1.7656e-05L110.047 0Z" fill="white"/>
<path id="Vector_129" d="M101.18 0H104.136V2.98585L101.18 2.98583V0Z" fill="white"/>
<path id="Vector_130" d="M104.136 5.97168L110.047 8.9575V11.9434L104.136 8.9575V5.97168Z" fill="white"/>
<path id="Vector_131" d="M119.016 0H121.971V2.98585H119.016V0Z" fill="white"/>
<path id="Vector_132" d="M116.06 5.97168H119.016V8.9575H116.06V5.97168Z" fill="white"/>
<path id="Vector_133" d="M116.06 8.95752H119.016V11.9434H116.06V8.95752Z" fill="white"/>
<path id="Vector_134" d="M119.016 8.95752L121.971 8.95758V11.9434H119.016V8.95752Z" fill="white"/>
<path id="Vector_135" d="M116.06 0H119.016V2.98585H116.06V0Z" fill="white"/>
<path id="Vector_136" d="M113.104 0H116.06V2.98585H113.104V0Z" fill="white"/>
<path id="Vector_137" d="M113.104 0L116.06 5.97168H119.016L116.06 0H113.104Z" fill="white"/>
<path id="Vector_138" d="M113.104 5.97168L116.06 11.9434H119.016L116.06 5.9717L113.104 5.97168Z" fill="white"/>
</g>
</mask>
<g mask="url(#mask0_7_46396)">
<path id="Vector_139" d="M2.95841 8.96426V8.97926H2.97326V8.96426H2.95841ZM2.95841 5.97616H2.97326V5.96116H2.95841V5.97616ZM14.891 8.96426V8.97926H14.9059V8.96426H14.891ZM14.891 5.97621H14.9059V5.96121H14.891V5.97621ZM14.891 2.98812V3.00312H14.9059V2.98812H14.891ZM41.7144 8.96426H41.7293V8.94926H41.7144V8.96426ZM41.7144 11.9524V11.9674H41.7293V11.9524H41.7144ZM38.7564 3.95179e-05H38.7713V-0.0149605H38.7564V3.95179e-05ZM104.136 2.98588V3.00088H104.151V2.98588H104.136ZM119.016 8.95754H119.031V8.94254H119.016V8.95754ZM119.016 11.9434V11.9584H119.031V11.9434H119.016ZM116.06 3.38927e-05H116.074V-0.0149661H116.06V3.38927e-05ZM0.000401285 8.97926H2.95841V8.94926H0.000401285V8.97926ZM0.000401285 5.99116H2.95841V5.96116H0.000401285V5.99116ZM2.94356 5.97616V8.96426H2.97326V5.97616H2.94356ZM5.91642 -0.0149948L2.95841 -0.0149949V0.0150051L5.91642 0.0150052V-0.0149948ZM8.87443 5.9612H5.9164V5.9912H8.87443V5.9612ZM11.933 8.97926H14.891V8.94926H11.933V8.97926ZM11.933 5.99121H14.891V5.96121H11.933V5.99121ZM14.8762 5.97621V8.96426H14.9059V5.97621H14.8762ZM14.9059 2.98812V3.95179e-05H14.8762V2.98812H14.9059ZM11.933 3.00311L14.891 3.00312V2.97312L11.933 2.97311V3.00311ZM29.7967 2.98812V4.22969e-05H29.767V2.98812H29.7967ZM26.809 4.22969e-05V2.98812H26.8387V4.22969e-05H26.809ZM23.8807 2.98812V4.22969e-05H23.851V2.98812H23.8807ZM29.7818 8.94926H26.8238V8.97926H29.7818V8.94926ZM29.7818 11.9374H26.8238V11.9674H29.7818V11.9374ZM41.7293 2.98812V3.95179e-05H41.6996V2.98812H41.7293ZM38.7564 5.99121H41.7144V5.96121H38.7564V5.99121ZM41.7144 8.94926H38.7564V8.97926H41.7144V8.94926ZM41.6996 8.96426V11.9524H41.7293V8.96426H41.6996ZM41.7144 11.9374H38.7564V11.9674H41.7144V11.9374ZM38.7713 2.98812V3.95179e-05H38.7416V2.98812H38.7713ZM35.7984 0.0150423L38.7564 0.0150395V-0.0149605L35.7984 -0.0149577V0.0150423ZM53.6619 2.98812V3.95179e-05H53.6322V2.98812H53.6619ZM53.6471 8.94926H50.6891V8.97926H53.6471V8.94926ZM53.6471 11.9374H50.6891V11.9674H53.6471V11.9374ZM50.7039 2.98812V3.95179e-05H50.6742V2.98812H50.7039ZM47.7459 2.98812V4.22969e-05H47.7162V2.98812H47.7459ZM71.3353 2.98588V3.38927e-05H71.3056V2.98588H71.3353ZM71.3205 8.9426H68.3649V8.9726H71.3205V8.9426ZM71.3205 11.9284H68.3649V11.9584H71.3205V11.9284ZM68.3798 2.98588V3.38927e-05H68.3501V2.98588H68.3798ZM65.4236 2.98588V3.38927e-05H65.3939V2.98588H65.4236ZM83.2591 2.98588V3.38927e-05H83.2294V2.98588H83.2591ZM83.2443 8.94254H80.2881V8.97254H83.2443V8.94254ZM80.303 2.98588V3.38927e-05H80.2733V2.98588H80.303ZM77.3474 2.98588V3.38927e-05H77.3177V2.98588H77.3474ZM95.1681 0.167763H92.2119V0.197763H95.1681V0.167763ZM101.18 8.9726H104.136V8.9426H101.18V8.9726ZM101.18 5.98672H104.136V5.95672H101.18V5.98672ZM104.151 2.98588V3.38927e-05H104.121V2.98588H104.151ZM101.18 3.00086L104.136 3.00088V2.97088L101.18 2.97086V3.00086ZM119.031 2.98588V3.38927e-05H119.001V2.98588H119.031ZM116.06 5.98672H119.016V5.95672H116.06V5.98672ZM119.016 8.94254H116.06V8.97254H119.016V8.94254ZM119.001 8.95754V11.9434H119.031V8.95754H119.001ZM119.016 11.9284H116.06V11.9584H119.016V11.9284ZM116.074 2.98588V3.38927e-05H116.045V2.98588H116.074ZM113.104 0.0150339H116.06V-0.0149661H113.104V0.0150339ZM2.95841 8.96426L2.97169 8.93744L2.92871 8.91572V8.96426H2.95841ZM2.95841 11.9524V11.9824H2.98811V11.9524H2.95841ZM0.000401285 11.9524H-0.0292969V11.9824H0.000401285V11.9524ZM0.000401285 5.97616L-0.0261616 5.96274L-0.0292969 5.96908V5.97616H0.000401285ZM2.95841 5.97616L2.93185 5.96274L2.91857 5.98958L2.94513 6.00302L2.95841 5.97616ZM5.91642 5.24521e-06L5.94299 -0.0134111L5.91642 -0.067077L5.88986 -0.0134111L5.91642 5.24521e-06ZM2.95841 5.1111e-06L2.98497 -0.0134112L2.95841 -0.0670776L2.93184 -0.0134112L2.95841 5.1111e-06ZM8.87443 5.9762H8.90413V5.96911L8.90098 5.96278L8.87443 5.9762ZM5.9164 5.9762H5.94607V5.96911L5.94299 5.96278L5.9164 5.9762ZM5.91642 8.96426H5.88672V8.99426H5.91642V8.96426ZM8.87443 11.9523L8.86113 11.9791L8.90413 12.0009V11.9523H8.87443ZM14.891 8.96426L14.9043 8.93744L14.8613 8.91572V8.96426H14.891ZM14.891 11.9524V11.9824H14.9207V11.9524H14.891ZM11.933 11.9524H11.9033V11.9824H11.933V11.9524ZM14.891 5.97621H14.8613V5.99475L14.8778 6.00302L14.891 5.97621ZM17.8491 2.98812V3.01812H17.8788V2.98812H17.8491ZM14.891 2.98812V2.95812H14.8613V2.98812H14.891ZM17.849 5.97621V6.0062H17.8674L17.8756 5.98963L17.849 5.97621ZM20.807 5.55664e-05L20.8336 0.013472L20.8551 -0.0299442L20.807 -0.0299444V5.55664e-05ZM11.933 4.22969e-05V-0.0299577H11.9033V4.22373e-05L11.933 4.22969e-05ZM20.807 8.96426H20.8367V8.94572L20.8203 8.93744L20.807 8.96426ZM20.807 11.9524L20.7938 11.9792L20.8367 12.0009V11.9524H20.807ZM32.7398 4.22969e-05H32.7695V-0.0299577H32.7398V4.22969e-05ZM32.7398 2.98812V3.01812H32.7695V2.98812H32.7398ZM23.8658 4.22969e-05V-0.0299577L23.8525 0.0268751L23.8658 4.22969e-05ZM23.8658 2.98812V2.95812L23.8525 3.01495L23.8658 2.98812ZM29.7818 11.9524L29.7553 11.9658L29.8115 11.9524H29.7818ZM26.8238 11.9524L26.7973 11.9658L26.8535 11.9524H26.8238ZM23.8658 5.9762V5.9462H23.8178L23.8393 5.98962L23.8658 5.9762ZM44.6724 3.95179e-05H44.7021V-0.0299605H44.6724V3.95179e-05ZM44.6724 2.98812V3.01812H44.7021V2.98812H44.6724ZM41.7144 5.97621H41.7441V5.96913L41.741 5.9628L41.7144 5.97621ZM41.7144 8.96426H41.6847V8.99426H41.7144V8.96426ZM41.7144 11.9524L41.6879 11.9658L41.6961 11.9824H41.7144V11.9524ZM38.7564 11.9524L38.7299 11.9658L38.7861 11.9524H38.7564ZM44.6724 8.96426H44.7021V8.93426H44.6724V8.96426ZM44.6724 11.9524V11.9824H44.7021V11.9524H44.6724ZM38.7564 3.95179e-05V-0.0299605H38.7084L38.7299 0.0134559L38.7564 3.95179e-05ZM35.7984 4.22969e-05L35.825 -0.0133741L35.7687 4.22969e-05H35.7984ZM35.7984 2.98812H35.7687V3.01812H35.7984V2.98812ZM35.7984 5.9762V5.9462H35.7504L35.7718 5.98962L35.7984 5.9762ZM56.6051 3.95179e-05H56.6348V-0.0299605H56.6051V3.95179e-05ZM56.6051 2.98812V3.01812H56.6348V2.98812H56.6051ZM53.6471 11.9524L53.6205 11.9658L53.6768 11.9524H53.6471ZM50.6891 11.9524L50.6625 11.9658L50.7188 11.9524H50.6891ZM47.7311 4.22969e-05V-0.0299577L47.7178 0.0268751L47.7311 4.22969e-05ZM47.7311 2.98812V2.95812L47.7178 3.01495L47.7311 2.98812ZM47.7311 5.9762V5.9462H47.683L47.7045 5.98962L47.7311 5.9762ZM59.3967 8.95838V8.92838H59.367V8.95838H59.3967ZM62.3517 8.95838H62.3813V8.92838H62.3517V8.95838ZM62.3517 11.9434V11.9734H62.3813V11.9434H62.3517ZM59.3967 11.9434H59.367V11.9734H59.3967V11.9434ZM74.276 3.38927e-05H74.3057V-0.0299661H74.276V3.38927e-05ZM74.276 2.98588V3.01588H74.3057V2.98588H74.276ZM71.3205 11.9434L71.2938 11.9568L71.3502 11.9434H71.3205ZM68.3649 11.9434L68.3382 11.9568L68.3946 11.9434H68.3649ZM65.4088 3.38927e-05V-0.0299661L65.3957 0.0268666L65.4088 3.38927e-05ZM65.4088 2.98588V2.95588L65.3957 3.01272L65.4088 2.98588ZM65.4088 5.9717V5.9417H65.3607L65.382 5.98512L65.4088 5.9717ZM86.1999 3.38927e-05H86.2296V-0.0299661H86.1999V3.38927e-05ZM86.1999 2.98588V3.01588H86.2296V2.98588H86.1999ZM80.2881 5.97172V5.94172H80.2584V5.97172H80.2881ZM80.2881 3.27026V3.24026H80.2584V3.27026H80.2881ZM83.2443 3.27026H83.274V3.24026H83.2443V3.27026ZM83.2443 6.2561V6.2861H83.274V6.2561H83.2443ZM80.2881 6.2561H80.2584V6.2861H80.2881V6.2561ZM83.2443 11.9434V11.9734H83.274V11.9434H83.2443ZM80.2881 11.9434H80.2584V11.9734H80.2881V11.9434ZM77.3326 3.38927e-05V-0.0299661L77.3195 0.0268666L77.3326 3.38927e-05ZM77.3326 2.98588V2.95588L77.3195 3.01272L77.3326 2.98588ZM92.2119 6.15446V6.18446H92.2304L92.2387 6.1679L92.2119 6.15446ZM95.1681 0.182763L95.1942 0.169347L95.1681 0.115681L95.1414 0.169346L95.1681 0.182763ZM92.2119 0.182763L92.2387 0.169346L92.2119 0.115681L92.1858 0.169346L92.2119 0.182763ZM89.2564 6.15446L89.2297 6.14102L89.2083 6.18446H89.2564V6.15446ZM95.1681 5.97168V5.94168H95.1497L95.1414 5.95827L95.1681 5.97168ZM92.2119 11.9434L92.1858 11.9299L92.1644 11.9734H92.2119V11.9434ZM95.1681 11.9434V11.9734H95.1865L95.1948 11.9568L95.1681 11.9434ZM98.1237 5.97168L98.1504 5.9851L98.1718 5.94168H98.1237V5.97168ZM98.1237 6.15452V6.18452H98.1718L98.1504 6.14108L98.1237 6.15452ZM95.1681 6.15452L95.1414 6.1679L95.1497 6.18452H95.1681V6.15452ZM92.2119 11.9434L92.1858 11.9568L92.1935 11.9734H92.2119V11.9434ZM89.2564 5.9717V5.9417H89.2083L89.2297 5.98512L89.2564 5.9717ZM92.2119 5.9717L92.2387 5.95828L92.2304 5.9417H92.2119V5.9717ZM95.1681 11.9434V11.9734H95.2162L95.1942 11.93L95.1681 11.9434ZM104.136 11.9434V11.9734H104.165V11.9434H104.136ZM101.18 11.9434H101.15V11.9734H101.18V11.9434ZM107.092 2.98588V3.01588H107.122V2.98588H107.092ZM104.136 2.98588V2.95588H104.106V2.98588H104.136ZM107.092 5.97172V6.0017H107.11L107.118 5.98513L107.092 5.97172ZM110.047 1.62274e-05L110.074 0.0134326L110.096 -0.0299841L110.047 -0.0299838V1.62274e-05ZM104.136 5.97172L104.109 5.9583L104.106 5.96464V5.97172H104.136ZM101.18 3.38927e-05V-0.0299661H101.15V3.38927e-05H101.18ZM110.047 8.95754H110.077V8.939L110.061 8.93072L110.047 8.95754ZM104.136 8.95754H104.106V8.97614L104.123 8.98442L104.136 8.95754ZM110.047 11.9434L110.034 11.9703L110.077 11.992V11.9434H110.047ZM121.971 3.38927e-05H122.001V-0.0299661H121.971V3.38927e-05ZM121.971 2.98588V3.01588H122.001V2.98588H121.971ZM119.016 5.97172H119.045V5.96464L119.042 5.9583L119.016 5.97172ZM119.016 8.95754H118.986V8.98754H119.016V8.95754ZM119.016 11.9434L118.989 11.9568L118.997 11.9734H119.016V11.9434ZM116.06 11.9434L116.033 11.9568L116.089 11.9434H116.06ZM121.971 8.9576H122.001V8.9276H121.971V8.9576ZM121.971 11.9434V11.9734H122.001V11.9434H121.971ZM116.06 3.38927e-05V-0.0299661H116.011L116.033 0.0134503L116.06 3.38927e-05ZM113.104 3.38927e-05L113.13 -0.0133825L113.074 3.38927e-05H113.104ZM113.104 2.98588H113.074V3.01588H113.104V2.98588ZM113.104 5.9717V5.9417H113.056L113.077 5.98512L113.104 5.9717ZM2.92871 8.96426V11.9524H2.98811V8.96426H2.92871ZM2.95841 11.9224H0.000401285V11.9824H2.95841V11.9224ZM0.0300994 11.9524V8.96426H-0.0292969V11.9524H0.0300994ZM0.0300994 8.96426V5.97616H-0.0292969V8.96426H0.0300994ZM2.98498 5.98958L5.94299 0.0134216L5.88986 -0.0134111L2.93185 5.96274L2.98498 5.98958ZM2.93184 -0.0134112L-0.0261616 5.96274L0.0269641 5.98958L2.98497 0.0134215L2.93184 -0.0134112ZM5.88986 0.0134215L8.84782 5.98962L8.90098 5.96278L5.94299 -0.0134111L5.88986 0.0134215ZM5.94299 5.96278L2.98497 -0.0134112L2.93184 0.0134214L5.88984 5.98962L5.94299 5.96278ZM8.84473 5.9762V8.96426H8.90413V5.9762H8.84473ZM8.87443 8.93426H5.91642V8.99426H8.87443V8.93426ZM5.94613 8.96426L5.94607 5.9762H5.8867L5.88672 8.96426H5.94613ZM8.88774 8.93738L2.9717 5.94933L2.94513 6.00302L8.86113 8.99108L8.88774 8.93738ZM2.94513 8.99114L8.86113 11.9791L8.88768 11.9255L2.97169 8.93744L2.94513 8.99114ZM8.90413 11.9523V8.96426H8.84473V11.9523H8.90413ZM14.8613 8.96426V11.9524H14.9207V8.96426H14.8613ZM14.891 11.9224H11.933V11.9824H14.891V11.9224ZM11.9627 11.9524V8.96426H11.9033V11.9524H11.9627ZM11.9627 8.96426V5.97621H11.9033V8.96426H11.9627ZM14.891 0.0300395H17.8491V-0.0299605H14.891V0.0300395ZM17.8194 3.95179e-05V2.98812H17.8788V3.95179e-05H17.8194ZM17.8491 2.95812H14.891V3.01812H17.8491V2.95812ZM14.8613 2.98812V5.97621H14.9207V2.98812H14.8613ZM11.9627 5.97621V2.98811H11.9033V5.97621H11.9627ZM17.8756 5.98963L20.8336 0.013472L20.7805 -0.0133608L17.8225 5.9628L17.8756 5.98963ZM20.807 -0.0299444L17.8491 -0.0299605V0.0300395L20.807 0.0300556V-0.0299444ZM17.8225 -0.0133769L14.8645 5.9628L14.9176 5.98963L17.8756 0.0134559L17.8225 -0.0133769ZM14.891 6.0062H17.849V5.94621H14.891V6.0062ZM11.933 0.0300423L14.891 0.0300395V-0.0299605L11.933 -0.0299577V0.0300423ZM11.9627 2.98811V4.23491e-05L11.9033 4.22373e-05V2.98811H11.9627ZM20.8203 8.93744L14.9043 5.94938L14.8778 6.00302L20.7938 8.99114L20.8203 8.93744ZM14.8778 8.99114L20.7938 11.9792L20.8203 11.9256L14.9043 8.93744L14.8778 8.99114ZM20.8367 11.9524V8.96426H20.7773V11.9524H20.8367ZM29.7818 0.0300423H32.7398V-0.0299577H29.7818V0.0300423ZM32.7101 4.22969e-05V2.98812H32.7695V4.22969e-05H32.7101ZM32.7398 2.95812H29.7818V3.01812H32.7398V2.95812ZM23.8658 0.0300423H26.8238V-0.0299577H23.8658V0.0300423ZM26.8238 2.95812H23.8658V3.01812H26.8238V2.95812ZM26.8238 6.0062H29.7818V5.94619H26.8238V6.0062ZM29.7521 5.97619V8.96426H29.8115V5.97619H29.7521ZM26.8535 8.96426V5.97619H26.7941V8.96426H26.8535ZM29.7521 8.96426V11.9524H29.8115V8.96426H29.7521ZM26.8535 11.9524V8.96426H26.7941V11.9524H26.8535ZM26.8238 0.0300423H29.7818V-0.0299577H26.8238V0.0300423ZM29.7818 2.95812H26.8238V3.01812H29.7818V2.95812ZM29.7951 2.96129L23.8791 -0.0267905L23.8525 0.0268751L29.7685 3.01495L29.7951 2.96129ZM23.8525 3.01495L29.7686 6.00302L29.7951 5.94935L23.8791 2.96129L23.8525 3.01495ZM29.8115 5.97619V2.98812H29.7521V5.97619H29.8115ZM26.8504 11.9389L23.8924 5.96278L23.8393 5.98962L26.7973 11.9658L26.8504 11.9389ZM23.8658 6.0062H26.8238V5.94619L23.8658 5.9462V6.0062ZM26.7973 5.9896L29.7553 11.9658L29.8084 11.9389L26.8504 5.96277L26.7973 5.9896ZM41.7144 0.0300395H44.6724V-0.0299605H41.7144V0.0300395ZM44.6427 3.95179e-05V2.98812H44.7021V3.95179e-05H44.6427ZM44.6724 2.95812H41.7144V3.01812H44.6724V2.95812ZM41.6847 5.97621V8.96426H41.7441V5.97621H41.6847ZM38.7861 8.96426V5.97621H38.7267V8.96426H38.7861ZM38.7861 11.9524V8.96426H38.7267V11.9524H38.7861ZM41.7144 8.99426H44.6724V8.93426H41.7144V8.99426ZM44.6427 8.96426V11.9524H44.7021V8.96426H44.6427ZM44.6724 11.9224H41.7144V11.9824H44.6724V11.9224ZM38.7564 0.0300395H41.7144V-0.0299605H38.7564V0.0300395ZM41.7144 2.95812H38.7564V3.01812H41.7144V2.95812ZM38.7564 2.95812L35.7984 2.95812V3.01812L38.7564 3.01812V2.95812ZM35.8281 2.98812V4.22969e-05H35.7687V2.98812H35.8281ZM38.783 5.9628L35.825 -0.0133741L35.7718 0.0134587L38.7299 5.98963L38.783 5.9628ZM38.7299 0.0134559L41.6879 5.98963L41.741 5.9628L38.783 -0.0133769L38.7299 0.0134559ZM38.783 11.9389L35.825 5.96278L35.7718 5.98962L38.7299 11.9658L38.783 11.9389ZM35.7984 6.0062H38.7564V5.94621L35.7984 5.9462V6.0062ZM38.7299 5.98963L41.6879 11.9658L41.741 11.9389L38.783 5.9628L38.7299 5.98963ZM53.6471 0.0300395H56.6051V-0.0299605H53.6471V0.0300395ZM56.5754 3.95179e-05V2.98812H56.6348V3.95179e-05H56.5754ZM56.6051 2.95812H53.6471V3.01812H56.6051V2.95812ZM50.6891 6.0062H53.6471V5.94621H50.6891V6.0062ZM53.6174 5.97621V8.96426H53.6768V5.97621H53.6174ZM50.7188 8.96426V5.97621H50.6594V8.96426H50.7188ZM53.6174 8.96426V11.9524H53.6768V8.96426H53.6174ZM50.7188 11.9524V8.96426H50.6594V11.9524H50.7188ZM50.6891 0.0300395H53.6471V-0.0299605H50.6891V0.0300395ZM53.6471 2.95812H50.6891V3.01812H53.6471V2.95812ZM47.7311 0.0300423L50.6891 0.0300395V-0.0299605L47.7311 -0.0299577V0.0300423ZM50.6891 2.95812L47.7311 2.95812V3.01812L50.6891 3.01812V2.95812ZM53.6604 2.96128L47.7444 -0.0267905L47.7178 0.0268751L53.6338 3.01495L53.6604 2.96128ZM47.7178 3.01495L53.6338 6.00302L53.6604 5.94938L47.7444 2.96129L47.7178 3.01495ZM53.6768 5.97621L53.6768 2.98812H53.6174L53.6174 5.97621H53.6768ZM50.7156 11.9389L47.7576 5.96278L47.7045 5.98962L50.6625 11.9658L50.7156 11.9389ZM47.7311 6.0062H50.6891V5.94621L47.7311 5.9462V6.0062ZM50.6625 5.98963L53.6205 11.9658L53.6737 11.9389L50.7156 5.9628L50.6625 5.98963ZM59.3967 8.98838H62.3517V8.92838H59.3967V8.98838ZM62.322 8.95838V11.9434H62.3813V8.95838H62.322ZM62.3517 11.9134H59.3967V11.9734H62.3517V11.9134ZM59.4264 11.9434V8.95838H59.367V11.9434H59.4264ZM71.3205 0.0300339H74.276V-0.0299661H71.3205V0.0300339ZM74.2464 3.38927e-05V2.98588H74.3057V3.38927e-05H74.2464ZM74.276 2.95588H71.3205V3.01588H74.276V2.95588ZM68.3649 6.00176H71.3205V5.94175H68.3649V6.00176ZM71.2908 5.97175V8.9576H71.3502V5.97175H71.2908ZM68.3946 8.9576V5.97175H68.3352V8.9576H68.3946ZM71.2908 8.9576V11.9434H71.3502V8.9576H71.2908ZM68.3946 11.9434V8.9576H68.3352V11.9434H68.3946ZM68.3649 0.0300339H71.3205V-0.0299661H68.3649V0.0300339ZM71.3205 2.95588H68.3649V3.01588H71.3205V2.95588ZM65.4088 0.0300339H68.3649V-0.0299661H65.4088V0.0300339ZM68.3649 2.95588H65.4088V3.01588H68.3649V2.95588ZM71.3336 2.95905L65.4218 -0.0267989L65.3957 0.0268666L71.3068 3.01272L71.3336 2.95905ZM65.3957 3.01272L71.3074 5.99858L71.3336 5.94492L65.4218 2.95905L65.3957 3.01272ZM71.3502 5.97175V2.98588H71.2908V5.97175H71.3502ZM68.3911 11.93L65.4355 5.95828L65.382 5.98512L68.3382 11.9568L68.3911 11.93ZM65.4088 6.0017L68.3649 6.00176V5.94175L65.4088 5.9417V6.0017ZM68.3382 5.98516L71.2938 11.9568L71.3472 11.93L68.3911 5.95833L68.3382 5.98516ZM83.2443 0.0300339H86.1999V-0.0299661H83.2443V0.0300339ZM86.1702 3.38927e-05V2.98588H86.2296V3.38927e-05H86.1702ZM86.1999 2.95588H83.2443V3.01588H86.1999V2.95588ZM80.2881 6.0017H83.2443V5.94172H80.2881V6.0017ZM83.2146 5.97172V8.95754H83.274V5.97172H83.2146ZM80.3178 8.95754V5.97172H80.2584V8.95754H80.3178ZM80.2881 3.30026H83.2443V3.24026H80.2881V3.30026ZM83.2146 3.27026V6.2561H83.274V3.27026H83.2146ZM83.2443 6.2261H80.2881V6.2861H83.2443V6.2261ZM80.3178 6.2561V3.27026H80.2584V6.2561H80.3178ZM83.2146 8.95754V11.9434H83.274V8.95754H83.2146ZM83.2443 11.9134H80.2881V11.9734H83.2443V11.9134ZM80.3178 11.9434V8.95754H80.2584V11.9434H80.3178ZM80.2881 0.0300339H83.2443V-0.0299661H80.2881V0.0300339ZM83.2443 2.95588H80.2881V3.01588H83.2443V2.95588ZM77.3326 0.0300339H80.2881V-0.0299661H77.3326V0.0300339ZM80.2881 2.95588H77.3326V3.01588H80.2881V2.95588ZM83.2574 2.95905L77.3456 -0.0267989L77.3195 0.0268666L83.2306 3.01272L83.2574 2.95905ZM77.3195 3.01272L83.2306 5.99855L83.2574 5.94489L77.3456 2.95905L77.3195 3.01272ZM83.274 5.97172V2.98588H83.2146V5.97172H83.274ZM92.2387 6.1679L95.1942 0.19618L95.1414 0.169346L92.1858 6.14102L92.2387 6.1679ZM92.1858 0.169346L89.2297 6.14102L89.2831 6.1679L92.2387 0.19618L92.1858 0.169346ZM89.2564 6.18446H92.2119V6.12446H89.2564V6.18446ZM95.1414 5.95827L92.1858 11.9299L92.2387 11.9568L95.1948 5.9851L95.1414 5.95827ZM92.2119 11.9734H95.1681V11.9134H92.2119V11.9734ZM95.1948 11.9568L98.1504 5.9851L98.0975 5.95827L95.1414 11.93L95.1948 11.9568ZM98.1237 5.94168H95.1681V6.0017H98.1237V5.94168ZM95.1414 0.19618L98.0969 6.1679L98.1504 6.14108L95.1942 0.169347L95.1414 0.19618ZM98.1237 6.12452H95.1681V6.18452H98.1237V6.12452ZM95.1942 6.14108L92.2387 0.169346L92.1858 0.196179L95.1414 6.1679L95.1942 6.14108ZM92.2387 11.93L89.2831 5.95828L89.2297 5.98512L92.1858 11.9568L92.2387 11.93ZM89.2564 6.0017H92.2119V5.9417H89.2564V6.0017ZM92.1858 5.98512L95.1414 11.9568L95.1942 11.93L92.2387 5.95828L92.1858 5.98512ZM95.1681 11.9134H92.2119V11.9734H95.1681V11.9134ZM104.106 8.95754V11.9434H104.165V8.9576L104.106 8.95754ZM104.136 11.9134H101.18V11.9734H104.136V11.9134ZM101.21 11.9434V8.9576H101.15V11.9434H101.21ZM104.106 5.97172V8.95754L104.165 8.9576V5.97172H104.106ZM101.21 8.9576V5.97172H101.15V8.9576H101.21ZM104.136 0.0300339H107.092V-0.0299661H104.136V0.0300339ZM107.062 3.38927e-05V2.98588H107.122V3.38927e-05H107.062ZM107.092 2.95588H104.136V3.01588H107.092V2.95588ZM104.106 2.98588V5.97172H104.165V2.98588H104.106ZM101.21 5.97172V2.98586H101.15V5.97172H101.21ZM107.118 5.98513L110.074 0.0134326L110.021 -0.0134002L107.065 5.9583L107.118 5.98513ZM110.047 -0.0299838L107.092 -0.0299661V0.0300339L110.047 0.0300162V-0.0299838ZM107.065 -0.0133827L104.109 5.9583L104.162 5.98513L107.118 0.0134505L107.065 -0.0133827ZM104.136 6.0017H107.092V5.94172H104.136V6.0017ZM101.18 0.0300339H104.136V-0.0299661H101.18V0.0300339ZM101.21 2.98586V3.38927e-05H101.15V2.98586H101.21ZM110.061 8.93072L104.149 5.94489L104.123 5.99855L110.034 8.98442L110.061 8.93072ZM104.106 5.97172V8.95754L104.165 8.9576V5.97172H104.106ZM104.123 8.98442L110.034 11.9703L110.061 11.9166L104.149 8.93072L104.123 8.98442ZM110.077 11.9434V8.95754H110.018V11.9434H110.077ZM119.016 0.0300339H121.971V-0.0299661H119.016V0.0300339ZM121.942 3.38927e-05V2.98588H122.001V3.38927e-05H121.942ZM121.971 2.95588H119.016V3.01588H121.971V2.95588ZM118.986 5.97172V8.95754H119.045V5.97172H118.986ZM116.089 8.95754V5.97172H116.03V8.95754H116.089ZM116.089 11.9434V8.95754H116.03V11.9434H116.089ZM119.016 8.98754L121.971 8.9876V8.9276L119.016 8.92754V8.98754ZM121.942 8.9576V11.9434H122.001V8.9576H121.942ZM121.971 11.9134H119.016V11.9734H121.971V11.9134ZM116.06 0.0300339H119.016V-0.0299661H116.06V0.0300339ZM119.016 2.95588H116.06V3.01588H119.016V2.95588ZM116.06 2.95588H113.104V3.01588H116.06V2.95588ZM113.134 2.98588V3.38927e-05H113.074V2.98588H113.134ZM116.086 5.9583L113.13 -0.0133825L113.077 0.0134502L116.033 5.98513L116.086 5.9583ZM116.033 0.0134503L118.989 5.98513L119.042 5.9583L116.086 -0.0133826L116.033 0.0134503ZM116.086 11.93L113.13 5.95828L113.077 5.98512L116.033 11.9568L116.086 11.93ZM113.104 6.0017H116.06V5.94172L113.104 5.9417V6.0017ZM116.033 5.98513L118.989 11.9568L119.042 11.93L116.086 5.9583L116.033 5.98513Z" fill="#581214"/>
</g>
</g>
</g>
<defs>
<clipPath id="clip0_7_46396">
<rect width="122" height="12" fill="white"/>
</clipPath>
</defs>
</svg>
