<svg width="82" height="22" viewBox="0 0 82 22" fill="none" xmlns="http://www.w3.org/2000/svg">
<g id="&#217;&#132;&#217;&#136;&#218;&#175;&#217;&#136;&#219;&#140; &#216;&#185;&#216;&#167;&#216;&#175;&#219;&#140; &#216;&#179;&#216;&#177;&#216;&#167;&#219;&#140; &#216;&#167;&#217;&#147;&#216;&#177;&#216;&#179;&#216;&#179; 4" clip-path="url(#clip0_7_46538)">
<path id="Vector" d="M40.7022 14.6667H37.7949V17.6H40.7022V14.6667Z" fill="#581214"/>
<path id="Vector_2" d="M40.7022 11.7333H37.7949V14.6667H40.7022V11.7333Z" fill="#581214"/>
<path id="Vector_3" d="M40.7022 8.79999H37.7949V11.7333H40.7022V8.79999Z" fill="#581214"/>
<path id="Vector_4" d="M43.6095 0H40.7021V2.93333H43.6095V0Z" fill="#581214"/>
<path id="Vector_5" d="M40.7022 5.8667H37.7949V8.80003H40.7022V5.8667Z" fill="#581214"/>
<path id="Vector_6" d="M34.8877 5.86669L40.7023 2.93333V0L34.8877 2.93333V5.86669Z" fill="#581214"/>
<path id="Vector_7" d="M37.7949 5.8667L40.7022 11.7333H43.6095L40.7022 5.8667H37.7949Z" fill="#581214"/>
<path id="Vector_8" d="M29.0733 8.79999H26.166V11.7333H29.0733V8.79999Z" fill="#581214"/>
<path id="Vector_9" d="M23.2583 11.7334V14.6667H26.1656V11.7334H23.2583Z" fill="#581214"/>
<path id="Vector_10" d="M20.3511 11.7334V14.6667H23.2584V11.7334H20.3511Z" fill="#581214"/>
<path id="Vector_11" d="M26.166 11.7334V14.6667H29.0733V11.7334H26.166Z" fill="#581214"/>
<path id="Vector_12" d="M17.4438 11.7334V14.6667H20.3512V11.7334H17.4438Z" fill="#581214"/>
<path id="Vector_13" d="M23.2583 17.6L29.0729 14.6667V11.7333L23.2583 14.6667V17.6Z" fill="#581214"/>
<path id="Vector_14" d="M17.4438 17.6L23.2585 14.6667V11.7333L17.4438 14.6667V17.6Z" fill="#581214"/>
<path id="Vector_15" d="M14.5366 16.0746L20.3513 13.1413V10.208L14.5366 13.1413V16.0746Z" fill="#581214"/>
<path id="Vector_16" d="M11.6294 11.7334V14.6667H14.5367V11.7334H11.6294Z" fill="#581214"/>
<path id="Vector_17" d="M14.5366 11.7334V14.6667H17.4439V11.7334H14.5366Z" fill="#581214"/>
<path id="Vector_18" d="M11.6294 17.6L17.444 14.6667V11.7333L11.6294 14.6667V17.6Z" fill="#581214"/>
<path id="Vector_19" d="M11.629 8.9173H8.72168V11.8506H11.629V8.9173Z" fill="#581214"/>
<path id="Vector_20" d="M2.90723 14.6666V17.6H5.81453V14.6666H2.90723Z" fill="#581214"/>
<path id="Vector_21" d="M8.72168 11.7334V14.6667H11.629V11.7334H8.72168Z" fill="#581214"/>
<path id="Vector_22" d="M0 11.7334L0 14.6667H2.90731V11.7334H0Z" fill="#581214"/>
<path id="Vector_23" d="M0 8.80001L0 11.7333H2.90731V8.80001H0Z" fill="#581214"/>
<path id="Vector_24" d="M0 14.6666L0 17.6H2.90731V14.6666H0Z" fill="#581214"/>
<path id="Vector_25" d="M0 11.7333L5.81461 8.80001V5.86664L1.50786e-08 8.80001L0 11.7333Z" fill="#581214"/>
<path id="Vector_26" d="M5.81445 17.6L11.629 14.6667V11.7333L5.81445 14.6667V17.6Z" fill="#581214"/>
<path id="Vector_27" d="M11.629 8.79999L8.72174 14.6667L5.81445 14.6666L8.72174 8.79999H11.629Z" fill="#581214"/>
<path id="Vector_28" d="M34.8878 8.79999H31.9805V11.7333H34.8878V8.79999Z" fill="#581214"/>
<path id="Vector_29" d="M34.8878 11.7333H31.9805V14.6667H34.8878V11.7333Z" fill="#581214"/>
<path id="Vector_30" d="M34.8878 14.6667H31.9805V17.6H34.8878V14.6667Z" fill="#581214"/>
<path id="Vector_31" d="M26.166 20.533L31.9806 17.5996V14.6663L26.166 17.5996V20.533Z" fill="#581214"/>
<path id="Vector_32" d="M81.9615 9.04016H79.0542V11.9735H81.9615V9.04016Z" fill="#581214"/>
<path id="Vector_33" d="M76.147 11.9737V14.907H79.0543V11.9737H76.147Z" fill="#581214"/>
<path id="Vector_34" d="M73.2393 11.9737V14.907H76.1466V11.9737H73.2393Z" fill="#581214"/>
<path id="Vector_35" d="M79.0542 11.9737V14.907H81.9615V11.9737H79.0542Z" fill="#581214"/>
<path id="Vector_36" d="M76.147 17.8406L81.9612 14.9073V11.9739L76.147 14.9073V17.8406Z" fill="#581214"/>
<path id="Vector_37" d="M73.2432 17.8096L79.058 14.8762V11.9429L73.2432 14.8762V17.8096Z" fill="#581214"/>
<path id="Vector_38" d="M67.4443 14.8838L73.2591 11.9504V9.01709L67.4443 11.9504V14.8838Z" fill="#581214"/>
<path id="Vector_39" d="M61.645 20.7347L67.4598 17.8013V14.868L61.645 17.8013V20.7347Z" fill="#581214"/>
<path id="Vector_40" d="M67.4443 14.8685V17.8018H70.3516V14.8685H67.4443Z" fill="#581214"/>
<path id="Vector_41" d="M67.4443 11.9426V14.8759H70.3516V11.9426H67.4443Z" fill="#581214"/>
<path id="Vector_42" d="M64.5523 11.9H61.645V14.8333H64.5523V11.9Z" fill="#581214"/>
<path id="Vector_43" d="M64.5523 8.96613H61.645V11.8995H64.5523V8.96613Z" fill="#581214"/>
<path id="Vector_44" d="M64.5523 6.03314H61.645V8.96647H64.5523V6.03314Z" fill="#581214"/>
<path id="Vector_45" d="M58.8346 10.306H55.9272V13.2394H58.8346V10.306Z" fill="#581214"/>
<path id="Vector_46" d="M50.1123 16.0553V18.9886H53.0196V16.0553H50.1123Z" fill="#581214"/>
<path id="Vector_47" d="M55.9272 13.122V16.0553H58.8346V13.122H55.9272Z" fill="#581214"/>
<path id="Vector_48" d="M47.2051 13.122V16.0553H50.1124V13.122H47.2051Z" fill="#581214"/>
<path id="Vector_49" d="M47.2051 10.1887V13.122H50.1124V10.1887H47.2051Z" fill="#581214"/>
<path id="Vector_50" d="M47.2051 16.0553V18.9886H50.1124V16.0553H47.2051Z" fill="#581214"/>
<path id="Vector_51" d="M47.2051 13.122L53.0197 10.1886V7.25531L47.2051 10.1886V13.122Z" fill="#581214"/>
<path id="Vector_52" d="M53.0195 18.9886L58.8339 16.0553V13.122L53.0195 16.0553V18.9886Z" fill="#581214"/>
<path id="Vector_53" d="M58.8339 10.1887L55.9268 16.0553H53.0195L55.9268 10.1887H58.8339Z" fill="#581214"/>
</g>
<defs>
<clipPath id="clip0_7_46538">
<rect width="82" height="22" fill="white"/>
</clipPath>
</defs>
</svg>
